<?xml version="1.0" standalone="no"?>
 <!DOCTYPE svg PUBLIC "-//W3C//DTD SVG 1.1//EN" 
 "http://www.w3.org/Graphics/SVG/1.1/DTD/svg11.dtd"> 
<svg xmlns="http://www.w3.org/2000/svg" version="1.1" 
    width="3.6322cm" height="3.40868cm" viewBox="0 0 14300 13420 ">
<title>SVG Picture created as nrfConnector-F.Cu.svg date 2018/05/28 19:30:40 </title>
  <desc>Picture generated by PCBNEW </desc>
<g style="fill:#000000; fill-opacity:1;stroke:#000000; stroke-opacity:1;
stroke-linecap:round; stroke-linejoin:round; "
 transform="translate(0 0) scale(1 1)">
</g>
<g style="fill:#000000; fill-opacity:0.0; 
stroke:#000000; stroke-width:-0.000393701; stroke-opacity:1; 
stroke-linecap:round; stroke-linejoin:round;">
</g>
<g style="fill:#000000; fill-opacity:1.0; 
stroke:#000000; stroke-width:0; stroke-opacity:1; 
stroke-linecap:round; stroke-linejoin:round;">
<circle cx="1300" cy="11800" r="590.551" /> 
</g>
<g style="fill:#000000; fill-opacity:1.0; 
stroke:#000000; stroke-width:39.3701; stroke-opacity:1; 
stroke-linecap:round; stroke-linejoin:round;">
</g>
<g style="fill:#000000; fill-opacity:1.0; 
stroke:#000000; stroke-width:0; stroke-opacity:1; 
stroke-linecap:round; stroke-linejoin:round;">
<polyline style="fill-rule:evenodd;"
points="3015,2258
2385,2258
2385,3124
3015,3124
3015,2258
" /> 
<polyline style="fill-rule:evenodd;"
points="3015,1076
2385,1076
2385,1942
3015,1942
3015,1076
" /> 
<polyline style="fill-rule:evenodd;"
points="7447,9485
7447,10115
8471,10115
8471,9485
7447,9485
" /> 
<polyline style="fill-rule:evenodd;"
points="6029,9485
6029,10115
7053,10115
7053,9485
6029,9485
" /> 
<polyline style="fill-rule:evenodd;"
points="11496,9901
11496,11398
12283,11398
12283,9901
11496,9901
" /> 
<polyline style="fill-rule:evenodd;"
points="9016,10354
9016,10945
9803,10945
9803,10354
9016,10354
" /> 
<polyline style="fill-rule:evenodd;"
points="9016,9449
9016,10039
9803,10039
9803,9449
9016,9449
" /> 
<polyline style="fill-rule:evenodd;"
points="9016,11260
9016,11850
9803,11850
9803,11260
9016,11260
" /> 
<polyline style="fill-rule:evenodd;"
points="650,9567
650,10433
1250,10433
1250,9567
650,9567
" /> 
</g>
<g style="fill:#000000; fill-opacity:1.0; 
stroke:#000000; stroke-width:600; stroke-opacity:1; 
stroke-linecap:round; stroke-linejoin:round;">
</g>
<g style="fill:#000000; fill-opacity:0.0; 
stroke:#000000; stroke-width:600; stroke-opacity:1; 
stroke-linecap:round; stroke-linejoin:round;">
<path d="M1950 10133
L1950 9867
" />
<path d="M2950 10133
L2950 9867
" />
<path d="M3950 10133
L3950 9867
" />
<path d="M4950 10133
L4950 9867
" />
</g>
<g style="fill:#000000; fill-opacity:0.0; 
stroke:#000000; stroke-width:0; stroke-opacity:1; 
stroke-linecap:round; stroke-linejoin:round;">
</g>
<g style="fill:#000000; fill-opacity:1.0; 
stroke:#000000; stroke-width:0; stroke-opacity:1; 
stroke-linecap:round; stroke-linejoin:round;">
<polyline style="fill-rule:evenodd;"
points="7015,11755
7015,11045
6385,11045
6385,11755
7015,11755
" /> 
<polyline style="fill-rule:evenodd;"
points="8115,11755
8115,11045
7485,11045
7485,11755
8115,11755
" /> 
<polyline style="fill-rule:evenodd;"
points="4885,4845
4885,5555
5515,5555
5515,4845
4885,4845
" /> 
<polyline style="fill-rule:evenodd;"
points="3785,4845
3785,5555
4415,5555
4415,4845
3785,4845
" /> 
<polyline style="fill-rule:evenodd;"
points="1045,1915
1755,1915
1755,1285
1045,1285
1045,1915
" /> 
<polyline style="fill-rule:evenodd;"
points="1045,3015
1755,3015
1755,2385
1045,2385
1045,3015
" /> 
<polyline style="fill-rule:evenodd;"
points="13470,9717
12880,9717
12880,10307
13470,10307
13470,9717
" /> 
<polyline style="fill-rule:evenodd;"
points="13470,11093
12880,11093
12880,11683
13470,11683
13470,11093
" /> 
<polyline style="fill-rule:evenodd;"
points="12695,7465
13405,7465
13405,6835
12695,6835
12695,7465
" /> 
<polyline style="fill-rule:evenodd;"
points="12695,8565
13405,8565
13405,7935
12695,7935
12695,8565
" /> 
<polyline style="fill-rule:evenodd;"
points="3745,1865
4455,1865
4455,1235
3745,1235
3745,1865
" /> 
<polyline style="fill-rule:evenodd;"
points="3745,2965
4455,2965
4455,2335
3745,2335
3745,2965
" /> 
<polyline style="fill-rule:evenodd;"
points="11955,7935
11245,7935
11245,8565
11955,8565
11955,7935
" /> 
<polyline style="fill-rule:evenodd;"
points="11955,6835
11245,6835
11245,7465
11955,7465
11955,6835
" /> 
<polyline style="fill-rule:evenodd;"
points="4885,5995
4885,6705
5515,6705
5515,5995
4885,5995
" /> 
<polyline style="fill-rule:evenodd;"
points="3785,5995
3785,6705
4415,6705
4415,5995
3785,5995
" /> 
<polyline style="fill-rule:evenodd;"
points="12203,5865
12203,5235
11179,5235
11179,5865
12203,5865
" /> 
<polyline style="fill-rule:evenodd;"
points="13621,5865
13621,5235
12597,5235
12597,5865
13621,5865
" /> 
<polyline style="fill-rule:evenodd;"
points="4415,4430
4415,3370
3785,3370
3785,4430
4415,4430
" /> 
<polyline style="fill-rule:evenodd;"
points="5515,4430
5515,3370
4885,3370
4885,4430
5515,4430
" /> 
<polyline style="fill-rule:evenodd;"
points="1945,3900
1158,3900
1158,4500
1945,4500
1945,3900
" /> 
</g>
<g style="fill:#000000; fill-opacity:1.0; 
stroke:#000000; stroke-width:600; stroke-opacity:1; 
stroke-linecap:round; stroke-linejoin:round;">
</g>
<g style="fill:#000000; fill-opacity:0.0; 
stroke:#000000; stroke-width:600; stroke-opacity:1; 
stroke-linecap:round; stroke-linejoin:round;">
<path d="M2654 4200
L2841 4200
" />
<path d="M1458 5200
L1645 5200
" />
<path d="M2654 5200
L2841 5200
" />
<path d="M1458 6200
L1645 6200
" />
<path d="M2654 6200
L2841 6200
" />
<path d="M1458 7200
L1645 7200
" />
<path d="M2654 7200
L2841 7200
" />
<path d="M1458 8200
L1645 8200
" />
<path d="M2654 8200
L2841 8200
" />
</g>
<g style="fill:#000000; fill-opacity:0.0; 
stroke:#000000; stroke-width:0; stroke-opacity:1; 
stroke-linecap:round; stroke-linejoin:round;">
</g>
<g style="fill:#000000; fill-opacity:1.0; 
stroke:#000000; stroke-width:0; stroke-opacity:1; 
stroke-linecap:round; stroke-linejoin:round;">
<polyline style="fill-rule:evenodd;"
points="10700,1295
10700,508
10100,508
10100,1295
10700,1295
" /> 
</g>
<g style="fill:#000000; fill-opacity:1.0; 
stroke:#000000; stroke-width:600; stroke-opacity:1; 
stroke-linecap:round; stroke-linejoin:round;">
</g>
<g style="fill:#000000; fill-opacity:0.0; 
stroke:#000000; stroke-width:600; stroke-opacity:1; 
stroke-linecap:round; stroke-linejoin:round;">
<path d="M10400 2004
L10400 2191
" />
<path d="M9400 808
L9400 995
" />
<path d="M9400 2004
L9400 2191
" />
<path d="M8400 808
L8400 995
" />
<path d="M8400 2004
L8400 2191
" />
<path d="M7400 808
L7400 995
" />
<path d="M7400 2004
L7400 2191
" />
<path d="M6400 808
L6400 995
" />
<path d="M6400 2004
L6400 2191
" />
<path d="M5400 808
L5400 995
" />
<path d="M5400 2004
L5400 2191
" />
</g>
<g style="fill:#000000; fill-opacity:0.0; 
stroke:#000000; stroke-width:0; stroke-opacity:1; 
stroke-linecap:round; stroke-linejoin:round;">
</g>
<g style="fill:#000000; fill-opacity:1.0; 
stroke:#000000; stroke-width:0; stroke-opacity:1; 
stroke-linecap:round; stroke-linejoin:round;">
<polyline style="fill-rule:evenodd;"
points="10588,4605
10588,4389
9958,4389
9958,4605
10588,4605
" /> 
<polyline style="fill-rule:evenodd;"
points="10588,4920
10588,4704
9958,4704
9958,4920
10588,4920
" /> 
<polyline style="fill-rule:evenodd;"
points="10588,5235
10588,5019
9958,5019
9958,5235
10588,5235
" /> 
<polyline style="fill-rule:evenodd;"
points="10588,5550
10588,5334
9958,5334
9958,5550
10588,5550
" /> 
<polyline style="fill-rule:evenodd;"
points="10588,5865
10588,5649
9958,5649
9958,5865
10588,5865
" /> 
<polyline style="fill-rule:evenodd;"
points="10588,6180
10588,5964
9958,5964
9958,6180
10588,6180
" /> 
<polyline style="fill-rule:evenodd;"
points="10588,6495
10588,6279
9958,6279
9958,6495
10588,6495
" /> 
<polyline style="fill-rule:evenodd;"
points="10588,6810
10588,6594
9958,6594
9958,6810
10588,6810
" /> 
<polyline style="fill-rule:evenodd;"
points="9594,7588
9810,7588
9810,6958
9594,6958
9594,7588
" /> 
<polyline style="fill-rule:evenodd;"
points="9279,7588
9495,7588
9495,6958
9279,6958
9279,7588
" /> 
<polyline style="fill-rule:evenodd;"
points="8964,7588
9180,7588
9180,6958
8964,6958
8964,7588
" /> 
<polyline style="fill-rule:evenodd;"
points="8649,7588
8865,7588
8865,6958
8649,6958
8649,7588
" /> 
<polyline style="fill-rule:evenodd;"
points="8334,7588
8550,7588
8550,6958
8334,6958
8334,7588
" /> 
<polyline style="fill-rule:evenodd;"
points="8019,7588
8235,7588
8235,6958
8019,6958
8019,7588
" /> 
<polyline style="fill-rule:evenodd;"
points="7704,7588
7920,7588
7920,6958
7704,6958
7704,7588
" /> 
<polyline style="fill-rule:evenodd;"
points="7389,7588
7605,7588
7605,6958
7389,6958
7389,7588
" /> 
<polyline style="fill-rule:evenodd;"
points="7241,6810
7241,6594
6611,6594
6611,6810
7241,6810
" /> 
<polyline style="fill-rule:evenodd;"
points="7241,6495
7241,6279
6611,6279
6611,6495
7241,6495
" /> 
<polyline style="fill-rule:evenodd;"
points="7241,6180
7241,5964
6611,5964
6611,6180
7241,6180
" /> 
<polyline style="fill-rule:evenodd;"
points="7241,5865
7241,5649
6611,5649
6611,5865
7241,5865
" /> 
<polyline style="fill-rule:evenodd;"
points="7241,5550
7241,5334
6611,5334
6611,5550
7241,5550
" /> 
<polyline style="fill-rule:evenodd;"
points="7241,5235
7241,5019
6611,5019
6611,5235
7241,5235
" /> 
<polyline style="fill-rule:evenodd;"
points="7241,4920
7241,4704
6611,4704
6611,4920
7241,4920
" /> 
<polyline style="fill-rule:evenodd;"
points="7241,4605
7241,4389
6611,4389
6611,4605
7241,4605
" /> 
<polyline style="fill-rule:evenodd;"
points="7389,4241
7605,4241
7605,3611
7389,3611
7389,4241
" /> 
<polyline style="fill-rule:evenodd;"
points="7704,4241
7920,4241
7920,3611
7704,3611
7704,4241
" /> 
<polyline style="fill-rule:evenodd;"
points="8019,4241
8235,4241
8235,3611
8019,3611
8019,4241
" /> 
<polyline style="fill-rule:evenodd;"
points="8334,4241
8550,4241
8550,3611
8334,3611
8334,4241
" /> 
<polyline style="fill-rule:evenodd;"
points="8649,4241
8865,4241
8865,3611
8649,3611
8649,4241
" /> 
<polyline style="fill-rule:evenodd;"
points="8964,4241
9180,4241
9180,3611
8964,3611
8964,4241
" /> 
<polyline style="fill-rule:evenodd;"
points="9279,4241
9495,4241
9495,3611
9279,3611
9279,4241
" /> 
<polyline style="fill-rule:evenodd;"
points="9594,4241
9810,4241
9810,3611
9594,3611
9594,4241
" /> 
<circle cx="12700" cy="2000" r="590.551" /> 
</g>
<g style="fill:#000000; fill-opacity:1.0; 
stroke:#000000; stroke-width:39.3701; stroke-opacity:1; 
stroke-linecap:round; stroke-linejoin:round;">
</g>
<g style="fill:#000000; fill-opacity:1.0; 
stroke:#000000; stroke-width:0; stroke-opacity:1; 
stroke-linecap:round; stroke-linejoin:round;">
<circle cx="10320" cy="3360" r="393.701" /> 
</g>
<g style="fill:#000000; fill-opacity:1.0; 
stroke:#000000; stroke-width:39.3701; stroke-opacity:1; 
stroke-linecap:round; stroke-linejoin:round;">
</g>
<g style="fill:#000000; fill-opacity:1.0; 
stroke:#000000; stroke-width:0; stroke-opacity:1; 
stroke-linecap:round; stroke-linejoin:round;">
<circle cx="4580" cy="8020" r="393.701" /> 
</g>
<g style="fill:#000000; fill-opacity:1.0; 
stroke:#000000; stroke-width:39.3701; stroke-opacity:1; 
stroke-linecap:round; stroke-linejoin:round;">
</g>
<g style="fill:#000000; fill-opacity:1.0; 
stroke:#000000; stroke-width:80; stroke-opacity:1; 
stroke-linecap:round; stroke-linejoin:round;">
</g>
<g style="fill:#000000; fill-opacity:0.0; 
stroke:#000000; stroke-width:80; stroke-opacity:1; 
stroke-linecap:round; stroke-linejoin:round;">
<path d="M1950 10000
L1950 10150
" />
<path d="M1950 10150
L2450 10650
" />
<path d="M2450 10650
L6150 10650
" />
<path d="M6150 10650
L6300 10500
" />
<path d="M6300 10500
L7850 10500
" />
<path d="M7850 10500
L7959 10391
" />
<path d="M7959 10391
L7959 9800
" />
<path d="M7959 9800
L9354 9800
" />
<path d="M9354 9800
L9409 9744
" />
<path d="M13050 8250
L13050 9887
" />
<path d="M13050 9887
L13175 10012
" />
<path d="M9072 3926
L9072 3287
" />
<path d="M9400 2960
L9400 2000
" />
<path d="M9072 3287
L9400 2960
" />
<path d="M9387 3926
L9387 3312
" />
<path d="M9920 1520
L9400 1000
" />
<path d="M9920 2780
L9920 1520
" />
<path d="M9387 3312
L9920 2780
" />
<path d="M3130 9120
L7700 9120
" />
<path d="M570 8660
L1030 9120
" />
<path d="M1030 9120
L3130 9120
" />
<path d="M1650 6200
L870 6200
" />
<path d="M870 6200
L570 6500
" />
<path d="M570 6500
L570 8660
" />
<path d="M8757 8062
L8757 7273
" />
<path d="M7700 9120
L8757 8062
" />
<path d="M3130 8920
L7360 8920
" />
<path d="M770 8580
L1110 8920
" />
<path d="M1110 8920
L3130 8920
" />
<path d="M2490 6200
L1990 6700
" />
<path d="M1070 6700
L770 7000
" />
<path d="M1990 6700
L1070 6700
" />
<path d="M770 7000
L770 8580
" />
<path d="M8127 8152
L8127 7273
" />
<path d="M7360 8920
L8127 8152
" />
<path d="M2650 6200
L2490 6200
" />
<path d="M2630 6220
L2650 6200
" />
<path d="M2650 6200
L2650 6240
" />
<path d="M6926 6702
L6117 6702
" />
<path d="M2440 6680
L1920 7200
" />
<path d="M3260 6680
L2440 6680
" />
<path d="M3620 7040
L3260 6680
" />
<path d="M5780 7040
L3620 7040
" />
<path d="M6117 6702
L5780 7040
" />
<path d="M1920 7200
L1650 7200
" />
<path d="M1910 7200
L1650 7200
" />
<path d="M3120 8720
L7220 8720
" />
<path d="M7812 8127
L7812 7273
" />
<path d="M7220 8720
L7812 8127
" />
<path d="M990 7940
L990 8520
" />
<path d="M1190 7740
L990 7940
" />
<path d="M1790 7740
L1190 7740
" />
<path d="M2330 7200
L1790 7740
" />
<path d="M1190 8720
L3120 8720
" />
<path d="M3120 8720
L3130 8720
" />
<path d="M990 8520
L1190 8720
" />
<path d="M2330 7200
L2650 7200
" />
<path d="M2650 7200
L2650 7260
" />
<path d="M2350 7180
L2330 7200
" />
<path d="M2270 7700
L3500 7700
" />
<path d="M3570 7630
L3920 7280
" />
<path d="M3920 7280
L6700 7280
" />
<path d="M7420 7700
L7497 7622
" />
<path d="M7497 7273
L7497 7622
" />
<path d="M7120 7700
L7420 7700
" />
<path d="M6700 7280
L7120 7700
" />
<path d="M2270 7700
L1770 8200
" />
<path d="M3500 7700
L3570 7630
" />
<path d="M1650 8200
L1770 8200
" />
<path d="M9702 3926
L9753 3926
" />
<path d="M9753 3926
L10320 3360
" />
<path d="M4580 8020
L4400 8200
" />
<path d="M4400 8200
L2650 8200
" />
<path d="M1650 4200
L1640 4200
" />
<path d="M1640 4200
L820 3380
" />
<path d="M4100 1940
L4100 1550
" />
<path d="M3940 2100
L4100 1940
" />
<path d="M2080 2100
L3940 2100
" />
<path d="M2020 2160
L2080 2100
" />
<path d="M900 2160
L2020 2160
" />
<path d="M820 2240
L900 2160
" />
<path d="M820 3380
L820 2240
" />
<path d="M4310 1550
L4100 1550
" />
<path d="M1650 4200
L1650 4310
" />
<path d="M8757 3926
L8757 2682
" />
<path d="M4100 960
L4100 1550
" />
<path d="M4780 280
L4100 960
" />
<path d="M8700 280
L4780 280
" />
<path d="M8900 480
L8700 280
" />
<path d="M8900 2540
L8900 480
" />
<path d="M8757 2682
L8900 2540
" />
<path d="M10273 4497
L10662 4497
" />
<path d="M10760 2000
L10400 2000
" />
<path d="M11020 2260
L10760 2000
" />
<path d="M11020 4140
L11020 2260
" />
<path d="M10662 4497
L11020 4140
" />
<path d="M8442 3926
L8442 2862
" />
<path d="M8400 2820
L8400 2000
" />
<path d="M8442 2862
L8400 2820
" />
<path d="M8127 3926
L8127 2827
" />
<path d="M7900 1500
L8400 1000
" />
<path d="M7900 2600
L7900 1500
" />
<path d="M8127 2827
L7900 2600
" />
<path d="M7812 3926
L7812 3212
" />
<path d="M7400 2800
L7400 2000
" />
<path d="M7812 3212
L7400 2800
" />
<path d="M7497 3926
L7497 3477
" />
<path d="M6900 1500
L7400 1000
" />
<path d="M6900 2880
L6900 1500
" />
<path d="M7497 3477
L6900 2880
" />
<path d="M6926 4497
L6537 4497
" />
<path d="M6400 4360
L6400 2000
" />
<path d="M6537 4497
L6400 4360
" />
<path d="M6926 4812
L6492 4812
" />
<path d="M5900 1500
L6400 1000
" />
<path d="M5900 2520
L5900 1500
" />
<path d="M6160 2780
L5900 2520
" />
<path d="M6160 4480
L6160 2780
" />
<path d="M6492 4812
L6160 4480
" />
<path d="M4620 5760
L4620 4800
" />
<path d="M5200 6340
L4620 5760
" />
<path d="M5200 4520
L5200 3900
" />
<path d="M5080 4640
L5200 4520
" />
<path d="M4780 4640
L5080 4640
" />
<path d="M4620 4800
L4780 4640
" />
<path d="M5200 6350
L5200 6340
" />
<path d="M6926 6387
L5237 6387
" />
<path d="M5237 6387
L5200 6350
" />
<path d="M6926 5757
L6357 5757
" />
<path d="M5800 5200
L5200 5200
" />
<path d="M6357 5757
L5800 5200
" />
<path d="M6926 5127
L6267 5127
" />
<path d="M5400 2720
L5400 2000
" />
<path d="M5940 3260
L5400 2720
" />
<path d="M5940 4800
L5940 3260
" />
<path d="M6267 5127
L5940 4800
" />
<path d="M10273 4812
L10727 4812
" />
<path d="M11120 1000
L10400 1000
" />
<path d="M11280 1160
L11120 1000
" />
<path d="M11280 4260
L11280 1160
" />
<path d="M10727 4812
L11280 4260
" />
<path d="M950 10000
L950 9350
" />
<path d="M2150 5700
L2650 5200
" />
<path d="M1080 5700
L2150 5700
" />
<path d="M360 6420
L1080 5700
" />
<path d="M360 8760
L360 6420
" />
<path d="M950 9350
L360 8760
" />
<path d="M2650 5200
L2780 5200
" />
<path d="M2780 5200
L3500 4480
" />
<path d="M3620 3900
L4100 3900
" />
<path d="M3500 4020
L3620 3900
" />
<path d="M3500 4480
L3500 4020
" />
<path d="M13175 11388
L13175 11425
" />
<path d="M13175 11425
L12850 11750
" />
<path d="M12850 11750
L11300 11750
" />
<path d="M11300 11750
L10200 10650
" />
<path d="M10200 10650
L9409 10650
" />
<path d="M9409 10650
L9750 10650
" />
<path d="M9750 10650
L10650 9750
" />
<path d="M10950 7150
L11600 7150
" />
<path d="M10650 7450
L10950 7150
" />
<path d="M10650 9750
L10650 7450
" />
<path d="M7800 11400
L8150 11400
" />
<path d="M8900 10650
L9409 10650
" />
<path d="M8150 11400
L8900 10650
" />
<path d="M950 10000
L950 10150
" />
<path d="M950 10150
L1450 10650
" />
<path d="M1450 10650
L2000 10650
" />
<path d="M2000 10650
L2200 10850
" />
<path d="M2200 10850
L7750 10850
" />
<path d="M7750 10850
L7800 10900
" />
<path d="M7800 10900
L7800 11400
" />
<path d="M11600 7150
L11600 6460
" />
<path d="M11691 6369
L11691 5550
" />
<path d="M11600 6460
L11691 6369
" />
<path d="M10273 6072
L11327 6072
" />
<path d="M11327 6072
L11691 5709
" />
<path d="M11691 5709
L11691 5550
" />
<path d="M10273 5442
L9907 5442
" />
<path d="M9872 6072
L10273 6072
" />
<path d="M9750 5950
L9872 6072
" />
<path d="M9750 5600
L9750 5950
" />
<path d="M9907 5442
L9750 5600
" />
<path d="M11583 5442
L11691 5550
" />
<path d="M2650 5200
L2650 4910
" />
<path d="M2650 4910
L2160 4420
" />
<path d="M2700 3340
L2700 2691
" />
<path d="M2160 3880
L2700 3340
" />
<path d="M2160 4420
L2160 3880
" />
<path d="M2700 2691
L4059 2691
" />
<path d="M4059 2691
L4100 2650
" />
<path d="M1400 2700
L2691 2700
" />
<path d="M2691 2700
L2700 2691
" />
<path d="M2650 5200
L2470 5200
" />
<path d="M4100 2650
L4100 3900
" />
</g>
<g style="fill:#000000; fill-opacity:1.0; 
stroke:#000000; stroke-width:100; stroke-opacity:1; 
stroke-linecap:round; stroke-linejoin:round;">
<polyline style="fill-rule:evenodd;"
points="50,12950
14250,12950
14250,11093
13622,11093
13622,11683
13612,11738
13579,11789
13529,11823
13470,11835
13032,11835
12984,11884
12922,11925
12850,11940
11300,11940
11227,11925
11165,11884
10929,11648
9974,11648
9974,11884
9948,11947
9900,11995
9837,12022
9502,12022
9459,11979
9459,11605
9359,11605
9359,11979
9317,12022
8982,12022
8919,11995
8870,11947
8870,11946
2040,11946
1928,12218
1720,12427
1447,12540
1153,12540
881,12428
672,12220
559,11947
559,11653
671,11381
879,11172
1152,11059
1446,11059
1718,11171
1927,11379
2040,11652
2040,11946
8870,11946
8844,11884
8844,11648
8887,11605
9359,11605
9459,11605
9931,11605
9974,11648
10929,11648
10121,10840
9956,10840
9956,10945
9946,11000
9913,11051
9863,11086
9841,11090
9900,11115
9948,11163
9974,11226
9974,11462
9931,11505
9459,11505
9459,11497
9359,11497
9359,11505
8887,11505
8844,11462
8844,11226
8870,11163
8919,11115
8977,11090
8960,11087
8909,11054
8875,11004
8864,10953
8284,11534
8267,11545
8267,11755
8257,11810
8224,11861
8174,11895
8115,11907
7485,11907
7429,11897
7378,11864
7344,11814
7332,11755
7332,11492
7186,11492
7186,11789
7160,11852
7112,11900
7049,11926
6792,11926
6750,11883
6750,11450
6650,11450
6650,11883
6607,11926
6350,11926
6287,11900
6239,11852
6213,11789
6213,11492
6256,11450
6650,11450
6750,11450
7143,11450
7186,11492
7332,11492
7332,11045
7333,11040
7186,11040
7186,11307
7143,11350
6750,11350
6750,11342
6650,11342
6650,11350
6256,11350
6213,11307
6213,11040
2200,11040
2127,11025
2065,10984
1921,10840
1450,10840
1377,10825
1315,10784
1117,10585
650,10585
594,10575
543,10542
509,10492
497,10433
497,9567
507,9511
540,9460
590,9426
650,9414
745,9414
225,8894
225,8894
184,8832
170,8760
170,6420
169,6420
184,6347
225,6285
945,5565
1007,5524
1080,5510
1098,5510
1008,5352
1003,5322
1032,5250
1502,5250
1502,5257
1602,5257
1602,5250
2071,5250
2100,5322
2095,5352
2005,5510
2071,5510
2224,5356
2193,5200
2218,5077
2100,5077
2071,5150
1602,5150
1602,4769
1502,4769
1502,5150
1032,5150
1003,5077
1008,5047
1100,4886
1248,4773
1427,4725
1502,4769
1602,4769
1676,4725
1855,4773
2003,4886
2095,5047
2100,5077
2218,5077
2228,5027
2325,4881
2342,4870
2064,4592
2055,4606
2005,4640
1945,4652
1158,4652
1102,4642
1051,4609
1017,4559
1005,4500
1005,3900
1015,3844
685,3514
644,3452
630,3380
630,2240
644,2167
685,2105
765,2025
827,1984
883,1973
873,1949
873,1692
916,1650
1350,1650
1350,1657
1450,1657
1450,1650
1883,1650
1926,1692
1926,1949
1917,1970
1941,1970
1945,1965
2007,1924
2080,1910
2213,1910
2213,1601
2256,1559
2650,1559
2650,1566
2750,1566
2750,1559
3143,1559
3186,1601
3186,1910
3601,1910
3592,1865
3592,1235
3602,1179
3635,1128
3685,1094
3745,1082
3910,1082
3910,1041
3186,1041
3186,1416
3143,1459
2750,1459
2750,947
2650,947
2650,1459
2256,1459
2213,1416
2213,1250
1926,1250
1926,1507
1883,1550
1450,1550
1450,1156
1350,1156
1350,1550
916,1550
873,1507
873,1250
899,1187
947,1139
1010,1113
1307,1113
1350,1156
1450,1156
1492,1113
1789,1113
1852,1139
1900,1187
1926,1250
2213,1250
2213,1041
2239,978
2287,930
2350,904
2607,904
2650,947
2750,947
2792,904
3049,904
3112,930
3160,978
3186,1041
3910,1041
3910,960
3909,960
3924,887
3938,865
3965,825
3965,825
4645,145
4707,104
4780,90
8700,90
8772,104
8834,145
8834,145
9034,345
9075,407
9088,474
9227,382
9400,347
9572,382
9718,479
9815,625
9850,797
9850,1006
9820,1152
9947,1278
9947,508
9957,452
9990,401
10040,367
10100,355
10700,355
10755,366
10806,398
10840,448
10852,508
10852,810
11120,810
11192,824
11254,865
11254,865
11414,1025
11455,1087
11470,1160
11470,4260
11455,4332
11414,4394
10861,4946
10800,4988
10759,4996
10759,5034
10716,5077
10323,5077
10323,5073
10223,5073
10223,5077
9829,5077
9787,5034
9787,4985
9808,4934
9805,4920
9805,4704
9814,4653
9805,4605
9805,4394
9594,4394
9543,4385
9495,4394
9279,4394
9228,4385
9180,4394
8964,4394
8913,4385
8865,4394
8649,4394
8598,4385
8550,4394
8334,4394
8283,4385
8235,4394
8019,4394
7968,4385
7920,4394
7704,4394
7653,4385
7605,4394
7394,4394
7394,4605
7385,4656
7394,4704
7394,4920
7385,4971
7394,5019
7394,5235
7392,5249
7412,5300
7412,5349
7370,5392
6976,5392
6976,5388
6876,5388
6876,5392
6483,5392
6440,5349
6440,5317
6267,5317
6194,5303
6133,5261
5805,4934
5764,4872
5749,4800
5750,4799
5750,3338
5265,2854
5224,2792
5210,2720
5210,2606
5081,2520
4984,2374
4950,2202
4950,1993
4984,1821
5081,1675
5227,1578
5400,1543
5572,1578
5710,1670
5710,1500
5724,1427
5765,1365
5979,1152
5950,1006
5950,797
5984,625
6081,479
6096,470
5703,470
5718,479
5815,625
5850,797
5850,1006
5815,1178
5718,1324
5572,1421
5400,1456
5227,1421
5081,1324
4984,1178
4950,1006
4950,797
4984,625
5081,479
5096,470
4858,470
4290,1038
4290,1082
4455,1082
4510,1092
4561,1125
4595,1175
4607,1235
4607,1865
4597,1920
4564,1971
4514,2005
4455,2017
4272,2017
4234,2074
4126,2182
4455,2182
4510,2192
4561,2225
4595,2275
4607,2335
4607,2965
4597,3020
4564,3071
4514,3105
4455,3117
4290,3117
4290,3217
4415,3217
4470,3227
4521,3260
4555,3310
4567,3370
4567,4430
4557,4485
4524,4536
4474,4570
4415,4582
3785,4582
3729,4572
3678,4539
3678,4539
3675,4552
3634,4614
3249,4999
3267,5027
3302,5200
3267,5372
3170,5518
3024,5615
2852,5650
2643,5650
2497,5620
2284,5834
2222,5875
2150,5890
1979,5890
2071,6027
2106,6200
2077,6343
2198,6222
2193,6200
2228,6027
2325,5881
2471,5784
2643,5750
2852,5750
3024,5784
3170,5881
3267,6027
3302,6200
3267,6372
3189,6490
3260,6490
3332,6504
3394,6545
3632,6783
3613,6739
3613,6442
3656,6400
4050,6400
4050,6407
4150,6407
4150,6400
4543,6400
4586,6442
4586,6739
4560,6802
4512,6850
4842,6850
4829,6847
4778,6814
4744,6764
4732,6705
4732,6140
4586,5994
4586,6257
4543,6300
4150,6300
4150,5866
4050,5866
4050,6300
3656,6300
3613,6257
3613,5960
3639,5897
3687,5849
3750,5823
4007,5823
4050,5866
4150,5866
4192,5823
4442,5823
4430,5760
4430,5726
4192,5726
4150,5683
4150,5250
4050,5250
4050,5683
4007,5726
3750,5726
3687,5700
3639,5652
3613,5589
3613,5292
3656,5250
4050,5250
4150,5250
4157,5250
4157,5150
4150,5150
4150,4716
4050,4716
4050,5150
3656,5150
3613,5107
3613,4810
3639,4747
3687,4699
3750,4673
4007,4673
4050,4716
4150,4716
4192,4673
4449,4673
4473,4683
4485,4665
4485,4665
4645,4505
4707,4464
4737,4458
4732,4430
4732,3370
4742,3314
4775,3263
4825,3229
4885,3217
5515,3217
5570,3227
5621,3260
5655,3310
5667,3370
5667,4430
5657,4485
5624,4536
5574,4570
5515,4582
5377,4582
5375,4592
5334,4654
5296,4692
5515,4692
5570,4702
5621,4735
5655,4785
5667,4845
5667,5010
5800,5010
5872,5024
5934,5065
5934,5065
6436,5567
6440,5567
6440,5535
6483,5492
6876,5492
6876,5496
6976,5496
6976,5492
7370,5492
7412,5535
7412,5584
7391,5635
7394,5649
7394,5865
7385,5916
7394,5964
7394,6180
7385,6231
7394,6279
7394,6495
7385,6546
7394,6594
7394,6805
7605,6805
7656,6814
7704,6805
7920,6805
7971,6814
8019,6805
8235,6805
8286,6814
8334,6805
8550,6805
8601,6814
8649,6805
8865,6805
8916,6814
8964,6805
9180,6805
9231,6814
9279,6805
9495,6805
9546,6814
9594,6805
9805,6805
9805,6594
9814,6543
9805,6495
9805,6279
9810,6250
9799,6247
9738,6206
9615,6084
9615,6084
9574,6022
9560,5950
9560,5600
9574,5527
9615,5465
9615,5465
9773,5308
9796,5292
9787,5269
9787,5220
9829,5177
10223,5177
10223,5181
10323,5181
10323,5177
10716,5177
10759,5220
10759,5269
10738,5320
10741,5334
10741,5550
10738,5564
10759,5615
10759,5664
10716,5707
10323,5707
10323,5703
10223,5703
10223,5707
10215,5707
10215,5807
10223,5807
10223,5811
10323,5811
10323,5807
10716,5807
10759,5850
10759,5882
11029,5882
11026,5865
11026,5235
11036,5179
11069,5128
11119,5094
11179,5082
12203,5082
12258,5092
12309,5125
12343,5175
12355,5235
12355,5865
12345,5920
12312,5971
12262,6005
12203,6017
11881,6017
11881,6369
11866,6441
11825,6503
11790,6538
11790,6682
11955,6682
12010,6692
12061,6725
12095,6775
12107,6835
12107,7465
12097,7520
12064,7571
12014,7605
11955,7617
11245,7617
11189,7607
11138,7574
11104,7524
11092,7465
11092,7340
11028,7340
10840,7528
10840,9750
10825,9822
10784,9884
10207,10461
10272,10474
10334,10515
11378,11560
12727,11560
12727,11093
12737,11037
12770,10986
12820,10952
12880,10940
13470,10940
13525,10950
13576,10983
13610,11033
13622,11093
14250,11093
14250,9717
13622,9717
13622,10307
13612,10362
13579,10413
13529,10447
13470,10459
12880,10459
12824,10449
12773,10416
12739,10366
12727,10307
12727,9901
12436,9901
12436,11398
12426,11453
12393,11504
12343,11538
12283,11550
11496,11550
11440,11540
11389,11507
11355,11457
11343,11398
11343,9901
11353,9846
11386,9795
11436,9761
11496,9749
12283,9749
12339,9759
12390,9792
12424,9842
12436,9901
12727,9901
12727,9717
12737,9661
12770,9610
12820,9576
12860,9568
12860,8717
12695,8717
12639,8707
12588,8674
12554,8624
12542,8565
12542,8342
12126,8342
12126,8599
12100,8662
12052,8710
11989,8736
11692,8736
11650,8693
11650,8300
11550,8300
11550,8693
11507,8736
11210,8736
11147,8710
11099,8662
11073,8599
11073,8342
11116,8300
11550,8300
11650,8300
12083,8300
12126,8342
12542,8342
12542,7935
12548,7900
12126,7900
12126,8157
12083,8200
11650,8200
11650,7806
11550,7806
11550,8200
11116,8200
11073,8157
11073,7900
11099,7837
11147,7789
11210,7763
11507,7763
11550,7806
11650,7806
11692,7763
11989,7763
12052,7789
12100,7837
12126,7900
12548,7900
12552,7879
12585,7828
12635,7794
12695,7782
13405,7782
13460,7792
13511,7825
13545,7875
13557,7935
13557,8565
13547,8620
13514,8671
13464,8705
13405,8717
13240,8717
13240,9564
13470,9564
13525,9574
13576,9607
13610,9657
13622,9717
14250,9717
14250,7242
13576,7242
13576,7499
13550,7562
13502,7610
13439,7636
13142,7636
13100,7593
13100,7200
13000,7200
13000,7593
12957,7636
12660,7636
12597,7610
12549,7562
12523,7499
12523,7242
12566,7200
13000,7200
13100,7200
13533,7200
13576,7242
14250,7242
14250,6800
13576,6800
13576,7057
13533,7100
13100,7100
13100,6706
13000,6706
13000,7100
12566,7100
12523,7057
12523,6800
12549,6737
12597,6689
12660,6663
12957,6663
13000,6706
13100,6706
13142,6663
13439,6663
13502,6689
13550,6737
13576,6800
14250,6800
14250,5642
13792,5642
13792,5899
13766,5962
13718,6010
13655,6036
13201,6036
13159,5993
13159,5600
13059,5600
13059,5993
13016,6036
12562,6036
12499,6010
12451,5962
12425,5899
12425,5642
12468,5600
13059,5600
13159,5600
13749,5600
13792,5642
14250,5642
14250,5200
13792,5200
13792,5457
13749,5500
13159,5500
13159,5106
13059,5106
13059,5500
12468,5500
12425,5457
12425,5200
12451,5137
12499,5089
12562,5063
13016,5063
13059,5106
13159,5106
13201,5063
13655,5063
13718,5089
13766,5137
13792,5200
14250,5200
14250,2146
13440,2146
13328,2418
13120,2627
12847,2740
12553,2740
12281,2628
12072,2420
11959,2147
11959,1853
12071,1581
12279,1372
12552,1259
12846,1259
13118,1371
13327,1579
13440,1852
13440,2146
14250,2146
14250,50
50,50
50,12950
" /> 
<polyline style="fill-rule:evenodd;"
points="11461,6206
11400,6247
11327,6262
10737,6262
10741,6279
10741,6495
10731,6546
10741,6594
10741,6810
10730,6866
10697,6917
10647,6951
10588,6963
9963,6963
9963,7588
9953,7643
9920,7694
9870,7729
9810,7741
9594,7741
9543,7731
9495,7741
9279,7741
9228,7731
9180,7741
8964,7741
8947,7737
8947,8062
8933,8135
8891,8196
7834,9254
7834,9254
7772,9295
7700,9310
7699,9310
1132,9310
1140,9350
1140,9414
1250,9414
1305,9424
1356,9457
1390,9507
1402,9567
1402,10334
1528,10460
1630,10460
1534,10316
1500,10144
1500,9855
1534,9683
1631,9537
1777,9439
1950,9405
2122,9439
2268,9537
2365,9683
2400,9855
2400,10144
2368,10300
2528,10460
2617,10460
2533,10359
2478,10183
2478,10050
2900,10050
2900,10057
3000,10057
3000,10050
3421,10050
3421,10183
3366,10359
3282,10460
3617,10460
3533,10359
3478,10183
3478,10050
3900,10050
3900,10057
4000,10057
4000,10050
4421,10050
4421,10183
4366,10359
4282,10460
4617,10460
4533,10359
4478,10183
4478,10050
4900,10050
4900,10057
5000,10057
5000,10050
5421,10050
5421,10183
5366,10359
5282,10460
6071,10460
6165,10365
6227,10324
6300,10310
7769,10310
7769,10267
7447,10267
7391,10257
7340,10224
7306,10174
7294,10115
7294,9892
7224,9892
7224,10149
7198,10212
7150,10260
7087,10286
6633,10286
6591,10243
6591,9850
6491,9850
6491,10243
6448,10286
5994,10286
5931,10260
5883,10212
5857,10149
5857,9892
5900,9850
6491,9850
6591,9850
7181,9850
7224,9892
7294,9892
7294,9817
5421,9817
5421,9950
5000,9950
5000,9441
4900,9441
4900,9950
4478,9950
4478,9817
4421,9817
4421,9950
4000,9950
4000,9441
3900,9441
3900,9950
3478,9950
3478,9817
3421,9817
3421,9950
3000,9950
3000,9441
2900,9441
2900,9950
2478,9950
2478,9817
2533,9640
2652,9498
2815,9412
2827,9411
2900,9441
3000,9441
3072,9411
3084,9412
3247,9498
3366,9640
3421,9817
3478,9817
3533,9640
3652,9498
3815,9412
3827,9411
3900,9441
4000,9441
4072,9411
4084,9412
4247,9498
4366,9640
4421,9817
4478,9817
4533,9640
4652,9498
4815,9412
4827,9411
4900,9441
5000,9441
5072,9411
5084,9412
5247,9498
5366,9640
5421,9817
7294,9817
7294,9485
7300,9450
7224,9450
7224,9707
7181,9750
6591,9750
6591,9356
6491,9356
6491,9750
5900,9750
5857,9707
5857,9450
5883,9387
5931,9339
5994,9313
6448,9313
6491,9356
6591,9356
6633,9313
7087,9313
7150,9339
7198,9387
7224,9450
7300,9450
7304,9429
7337,9378
7387,9344
7447,9332
8471,9332
8526,9342
8577,9375
8611,9425
8623,9485
8623,9610
8863,9610
8863,9449
8873,9393
8906,9342
8956,9308
9016,9296
9803,9296
9859,9306
9910,9339
9944,9389
9956,9449
9956,10039
9946,10095
9913,10146
9863,10180
9803,10192
9016,10192
8960,10182
8909,10149
8875,10099
8863,10039
8863,9990
8623,9990
8623,10115
8613,10170
8580,10221
8530,10255
8471,10267
8149,10267
8149,10391
8134,10463
8093,10525
7984,10634
7922,10675
7850,10690
7845,10690
7884,10715
7934,10765
7975,10827
7988,10892
8115,10892
8170,10902
8221,10935
8255,10985
8262,11018
8765,10515
8827,10474
8863,10467
8863,10354
8873,10299
8906,10248
8956,10213
9016,10201
9803,10201
9859,10212
9895,10235
10460,9671
10460,7450
10459,7450
10474,7377
10515,7315
10815,7015
10877,6974
10950,6960
11092,6960
11092,6835
11102,6779
11135,6728
11185,6694
11245,6682
11410,6682
11410,6460
11424,6387
11465,6325
11501,6290
11501,6167
11461,6206
" /> 
</g>
<g style="fill:#FFFFFF; fill-opacity:1.0; 
stroke:#FFFFFF; stroke-width:100; stroke-opacity:1; 
stroke-linecap:round; stroke-linejoin:round;">
</g>
<g style="fill:#FFFFFF; fill-opacity:1.0; 
stroke:#FFFFFF; stroke-width:0; stroke-opacity:1; 
stroke-linecap:round; stroke-linejoin:round;">
<circle cx="10320" cy="3360" r="78.7402" /> 
</g>
<g style="fill:#FFFFFF; fill-opacity:1.0; 
stroke:#FFFFFF; stroke-width:39.3701; stroke-opacity:1; 
stroke-linecap:round; stroke-linejoin:round;">
</g>
<g style="fill:#FFFFFF; fill-opacity:1.0; 
stroke:#FFFFFF; stroke-width:0; stroke-opacity:1; 
stroke-linecap:round; stroke-linejoin:round;">
<circle cx="4580" cy="8020" r="78.7402" /> 
</g>
<g style="fill:#FFFFFF; fill-opacity:1.0; 
stroke:#FFFFFF; stroke-width:39.3701; stroke-opacity:1; 
stroke-linecap:round; stroke-linejoin:round;">
</g>
<g style="fill:#FFFFFF; fill-opacity:1.0; 
stroke:#FFFFFF; stroke-width:0; stroke-opacity:1; 
stroke-linecap:round; stroke-linejoin:round;">
<circle cx="1300" cy="11800" r="196.85" /> 
</g>
<g style="fill:#FFFFFF; fill-opacity:1.0; 
stroke:#FFFFFF; stroke-width:39.3701; stroke-opacity:1; 
stroke-linecap:round; stroke-linejoin:round;">
</g>
<g style="fill:#FFFFFF; fill-opacity:1.0; 
stroke:#FFFFFF; stroke-width:0; stroke-opacity:1; 
stroke-linecap:round; stroke-linejoin:round;">
<circle cx="950" cy="10000" r="197" /> 
</g>
<g style="fill:#FFFFFF; fill-opacity:1.0; 
stroke:#FFFFFF; stroke-width:39.3701; stroke-opacity:1; 
stroke-linecap:round; stroke-linejoin:round;">
</g>
<g style="fill:#FFFFFF; fill-opacity:1.0; 
stroke:#FFFFFF; stroke-width:0; stroke-opacity:1; 
stroke-linecap:round; stroke-linejoin:round;">
<circle cx="1950" cy="10000" r="197" /> 
</g>
<g style="fill:#FFFFFF; fill-opacity:1.0; 
stroke:#FFFFFF; stroke-width:39.3701; stroke-opacity:1; 
stroke-linecap:round; stroke-linejoin:round;">
</g>
<g style="fill:#FFFFFF; fill-opacity:1.0; 
stroke:#FFFFFF; stroke-width:0; stroke-opacity:1; 
stroke-linecap:round; stroke-linejoin:round;">
<circle cx="2950" cy="10000" r="197" /> 
</g>
<g style="fill:#FFFFFF; fill-opacity:1.0; 
stroke:#FFFFFF; stroke-width:39.3701; stroke-opacity:1; 
stroke-linecap:round; stroke-linejoin:round;">
</g>
<g style="fill:#FFFFFF; fill-opacity:1.0; 
stroke:#FFFFFF; stroke-width:0; stroke-opacity:1; 
stroke-linecap:round; stroke-linejoin:round;">
<circle cx="3950" cy="10000" r="197" /> 
</g>
<g style="fill:#FFFFFF; fill-opacity:1.0; 
stroke:#FFFFFF; stroke-width:39.3701; stroke-opacity:1; 
stroke-linecap:round; stroke-linejoin:round;">
</g>
<g style="fill:#FFFFFF; fill-opacity:1.0; 
stroke:#FFFFFF; stroke-width:0; stroke-opacity:1; 
stroke-linecap:round; stroke-linejoin:round;">
<circle cx="4950" cy="10000" r="197" /> 
</g>
<g style="fill:#FFFFFF; fill-opacity:1.0; 
stroke:#FFFFFF; stroke-width:39.3701; stroke-opacity:1; 
stroke-linecap:round; stroke-linejoin:round;">
</g>
<g style="fill:#FFFFFF; fill-opacity:1.0; 
stroke:#FFFFFF; stroke-width:0; stroke-opacity:1; 
stroke-linecap:round; stroke-linejoin:round;">
<circle cx="1650" cy="4200" r="197" /> 
</g>
<g style="fill:#FFFFFF; fill-opacity:1.0; 
stroke:#FFFFFF; stroke-width:39.3701; stroke-opacity:1; 
stroke-linecap:round; stroke-linejoin:round;">
</g>
<g style="fill:#FFFFFF; fill-opacity:1.0; 
stroke:#FFFFFF; stroke-width:0; stroke-opacity:1; 
stroke-linecap:round; stroke-linejoin:round;">
<circle cx="2650" cy="4200" r="197" /> 
</g>
<g style="fill:#FFFFFF; fill-opacity:1.0; 
stroke:#FFFFFF; stroke-width:39.3701; stroke-opacity:1; 
stroke-linecap:round; stroke-linejoin:round;">
</g>
<g style="fill:#FFFFFF; fill-opacity:1.0; 
stroke:#FFFFFF; stroke-width:0; stroke-opacity:1; 
stroke-linecap:round; stroke-linejoin:round;">
<circle cx="1650" cy="5200" r="197" /> 
</g>
<g style="fill:#FFFFFF; fill-opacity:1.0; 
stroke:#FFFFFF; stroke-width:39.3701; stroke-opacity:1; 
stroke-linecap:round; stroke-linejoin:round;">
</g>
<g style="fill:#FFFFFF; fill-opacity:1.0; 
stroke:#FFFFFF; stroke-width:0; stroke-opacity:1; 
stroke-linecap:round; stroke-linejoin:round;">
<circle cx="2650" cy="5200" r="197" /> 
</g>
<g style="fill:#FFFFFF; fill-opacity:1.0; 
stroke:#FFFFFF; stroke-width:39.3701; stroke-opacity:1; 
stroke-linecap:round; stroke-linejoin:round;">
</g>
<g style="fill:#FFFFFF; fill-opacity:1.0; 
stroke:#FFFFFF; stroke-width:0; stroke-opacity:1; 
stroke-linecap:round; stroke-linejoin:round;">
<circle cx="1650" cy="6200" r="197" /> 
</g>
<g style="fill:#FFFFFF; fill-opacity:1.0; 
stroke:#FFFFFF; stroke-width:39.3701; stroke-opacity:1; 
stroke-linecap:round; stroke-linejoin:round;">
</g>
<g style="fill:#FFFFFF; fill-opacity:1.0; 
stroke:#FFFFFF; stroke-width:0; stroke-opacity:1; 
stroke-linecap:round; stroke-linejoin:round;">
<circle cx="2650" cy="6200" r="197" /> 
</g>
<g style="fill:#FFFFFF; fill-opacity:1.0; 
stroke:#FFFFFF; stroke-width:39.3701; stroke-opacity:1; 
stroke-linecap:round; stroke-linejoin:round;">
</g>
<g style="fill:#FFFFFF; fill-opacity:1.0; 
stroke:#FFFFFF; stroke-width:0; stroke-opacity:1; 
stroke-linecap:round; stroke-linejoin:round;">
<circle cx="1650" cy="7200" r="197" /> 
</g>
<g style="fill:#FFFFFF; fill-opacity:1.0; 
stroke:#FFFFFF; stroke-width:39.3701; stroke-opacity:1; 
stroke-linecap:round; stroke-linejoin:round;">
</g>
<g style="fill:#FFFFFF; fill-opacity:1.0; 
stroke:#FFFFFF; stroke-width:0; stroke-opacity:1; 
stroke-linecap:round; stroke-linejoin:round;">
<circle cx="2650" cy="7200" r="197" /> 
</g>
<g style="fill:#FFFFFF; fill-opacity:1.0; 
stroke:#FFFFFF; stroke-width:39.3701; stroke-opacity:1; 
stroke-linecap:round; stroke-linejoin:round;">
</g>
<g style="fill:#FFFFFF; fill-opacity:1.0; 
stroke:#FFFFFF; stroke-width:0; stroke-opacity:1; 
stroke-linecap:round; stroke-linejoin:round;">
<circle cx="1650" cy="8200" r="197" /> 
</g>
<g style="fill:#FFFFFF; fill-opacity:1.0; 
stroke:#FFFFFF; stroke-width:39.3701; stroke-opacity:1; 
stroke-linecap:round; stroke-linejoin:round;">
</g>
<g style="fill:#FFFFFF; fill-opacity:1.0; 
stroke:#FFFFFF; stroke-width:0; stroke-opacity:1; 
stroke-linecap:round; stroke-linejoin:round;">
<circle cx="2650" cy="8200" r="197" /> 
</g>
<g style="fill:#FFFFFF; fill-opacity:1.0; 
stroke:#FFFFFF; stroke-width:39.3701; stroke-opacity:1; 
stroke-linecap:round; stroke-linejoin:round;">
</g>
<g style="fill:#FFFFFF; fill-opacity:1.0; 
stroke:#FFFFFF; stroke-width:0; stroke-opacity:1; 
stroke-linecap:round; stroke-linejoin:round;">
<circle cx="10400" cy="1000" r="197" /> 
</g>
<g style="fill:#FFFFFF; fill-opacity:1.0; 
stroke:#FFFFFF; stroke-width:39.3701; stroke-opacity:1; 
stroke-linecap:round; stroke-linejoin:round;">
</g>
<g style="fill:#FFFFFF; fill-opacity:1.0; 
stroke:#FFFFFF; stroke-width:0; stroke-opacity:1; 
stroke-linecap:round; stroke-linejoin:round;">
<circle cx="10400" cy="2000" r="197" /> 
</g>
<g style="fill:#FFFFFF; fill-opacity:1.0; 
stroke:#FFFFFF; stroke-width:39.3701; stroke-opacity:1; 
stroke-linecap:round; stroke-linejoin:round;">
</g>
<g style="fill:#FFFFFF; fill-opacity:1.0; 
stroke:#FFFFFF; stroke-width:0; stroke-opacity:1; 
stroke-linecap:round; stroke-linejoin:round;">
<circle cx="9400" cy="1000" r="197" /> 
</g>
<g style="fill:#FFFFFF; fill-opacity:1.0; 
stroke:#FFFFFF; stroke-width:39.3701; stroke-opacity:1; 
stroke-linecap:round; stroke-linejoin:round;">
</g>
<g style="fill:#FFFFFF; fill-opacity:1.0; 
stroke:#FFFFFF; stroke-width:0; stroke-opacity:1; 
stroke-linecap:round; stroke-linejoin:round;">
<circle cx="9400" cy="2000" r="197" /> 
</g>
<g style="fill:#FFFFFF; fill-opacity:1.0; 
stroke:#FFFFFF; stroke-width:39.3701; stroke-opacity:1; 
stroke-linecap:round; stroke-linejoin:round;">
</g>
<g style="fill:#FFFFFF; fill-opacity:1.0; 
stroke:#FFFFFF; stroke-width:0; stroke-opacity:1; 
stroke-linecap:round; stroke-linejoin:round;">
<circle cx="8400" cy="1000" r="197" /> 
</g>
<g style="fill:#FFFFFF; fill-opacity:1.0; 
stroke:#FFFFFF; stroke-width:39.3701; stroke-opacity:1; 
stroke-linecap:round; stroke-linejoin:round;">
</g>
<g style="fill:#FFFFFF; fill-opacity:1.0; 
stroke:#FFFFFF; stroke-width:0; stroke-opacity:1; 
stroke-linecap:round; stroke-linejoin:round;">
<circle cx="8400" cy="2000" r="197" /> 
</g>
<g style="fill:#FFFFFF; fill-opacity:1.0; 
stroke:#FFFFFF; stroke-width:39.3701; stroke-opacity:1; 
stroke-linecap:round; stroke-linejoin:round;">
</g>
<g style="fill:#FFFFFF; fill-opacity:1.0; 
stroke:#FFFFFF; stroke-width:0; stroke-opacity:1; 
stroke-linecap:round; stroke-linejoin:round;">
<circle cx="7400" cy="1000" r="197" /> 
</g>
<g style="fill:#FFFFFF; fill-opacity:1.0; 
stroke:#FFFFFF; stroke-width:39.3701; stroke-opacity:1; 
stroke-linecap:round; stroke-linejoin:round;">
</g>
<g style="fill:#FFFFFF; fill-opacity:1.0; 
stroke:#FFFFFF; stroke-width:0; stroke-opacity:1; 
stroke-linecap:round; stroke-linejoin:round;">
<circle cx="7400" cy="2000" r="197" /> 
</g>
<g style="fill:#FFFFFF; fill-opacity:1.0; 
stroke:#FFFFFF; stroke-width:39.3701; stroke-opacity:1; 
stroke-linecap:round; stroke-linejoin:round;">
</g>
<g style="fill:#FFFFFF; fill-opacity:1.0; 
stroke:#FFFFFF; stroke-width:0; stroke-opacity:1; 
stroke-linecap:round; stroke-linejoin:round;">
<circle cx="6400" cy="1000" r="197" /> 
</g>
<g style="fill:#FFFFFF; fill-opacity:1.0; 
stroke:#FFFFFF; stroke-width:39.3701; stroke-opacity:1; 
stroke-linecap:round; stroke-linejoin:round;">
</g>
<g style="fill:#FFFFFF; fill-opacity:1.0; 
stroke:#FFFFFF; stroke-width:0; stroke-opacity:1; 
stroke-linecap:round; stroke-linejoin:round;">
<circle cx="6400" cy="2000" r="197" /> 
</g>
<g style="fill:#FFFFFF; fill-opacity:1.0; 
stroke:#FFFFFF; stroke-width:39.3701; stroke-opacity:1; 
stroke-linecap:round; stroke-linejoin:round;">
</g>
<g style="fill:#FFFFFF; fill-opacity:1.0; 
stroke:#FFFFFF; stroke-width:0; stroke-opacity:1; 
stroke-linecap:round; stroke-linejoin:round;">
<circle cx="5400" cy="1000" r="197" /> 
</g>
<g style="fill:#FFFFFF; fill-opacity:1.0; 
stroke:#FFFFFF; stroke-width:39.3701; stroke-opacity:1; 
stroke-linecap:round; stroke-linejoin:round;">
</g>
<g style="fill:#FFFFFF; fill-opacity:1.0; 
stroke:#FFFFFF; stroke-width:0; stroke-opacity:1; 
stroke-linecap:round; stroke-linejoin:round;">
<circle cx="5400" cy="2000" r="197" /> 
</g>
<g style="fill:#FFFFFF; fill-opacity:1.0; 
stroke:#FFFFFF; stroke-width:39.3701; stroke-opacity:1; 
stroke-linecap:round; stroke-linejoin:round;">
</g>
<g style="fill:#FFFFFF; fill-opacity:1.0; 
stroke:#FFFFFF; stroke-width:0; stroke-opacity:1; 
stroke-linecap:round; stroke-linejoin:round;">
<circle cx="12700" cy="2000" r="196.85" /> 
</g>
<g style="fill:#FFFFFF; fill-opacity:1.0; 
stroke:#FFFFFF; stroke-width:39.3701; stroke-opacity:1; 
stroke-linecap:round; stroke-linejoin:round;">
</g>
<g style="fill:#000000; fill-opacity:1.0; 
stroke:#000000; stroke-width:39.3701; stroke-opacity:1; 
stroke-linecap:round; stroke-linejoin:round;">
</g> 
</svg>
